<?xml version="1.0" standalone="no"?>
<!DOCTYPE svg PUBLIC "-//W3C//DTD SVG 20010904//EN"
 "http://www.w3.org/TR/2001/REC-SVG-20010904/DTD/svg10.dtd">
<svg version="1.0" xmlns="http://www.w3.org/2000/svg"
 width="650.000000pt" height="350.000000pt" viewBox="0 0 650.000000 350.000000"
 preserveAspectRatio="xMidYMid meet">

<g transform="translate(0.000000,350.000000) scale(0.100000,-0.100000)"
fill="#000000" stroke="none">
<path d="M3451 2796 c2 -2 180 -5 394 -8 215 -3 350 -2 300 2 -91 8 -702 13
-694 6z"/>
<path d="M3288 2783 c23 -2 61 -2 85 0 23 2 4 4 -43 4 -47 0 -66 -2 -42 -4z"/>
<path d="M3138 2773 c12 -2 30 -2 40 0 9 3 -1 5 -23 4 -22 0 -30 -2 -17 -4z"/>
<path d="M3028 2763 c12 -2 32 -2 45 0 12 2 2 4 -23 4 -25 0 -35 -2 -22 -4z"/>
<path d="M3760 2756 l85 -12 -159 -7 c-115 -5 -162 -11 -170 -21 -6 -8 -18
-16 -26 -18 -8 -3 16 -5 54 -6 38 -1 70 -3 72 -5 3 -2 -175 -7 -393 -10 -418
-7 -582 -17 -723 -44 -47 -8 -99 -16 -115 -17 -71 -3 -262 -120 -472 -289
-118 -94 -133 -104 -138 -86 -5 15 -13 19 -28 15 -12 -3 -28 -6 -34 -6 -7 0
-31 -16 -53 -36 -42 -38 -53 -74 -23 -74 12 0 14 -3 6 -11 -7 -7 -21 -4 -47
12 -20 12 -39 20 -41 17 -2 -2 1 -20 7 -40 7 -25 18 -38 34 -42 13 -4 24 -11
24 -16 0 -5 32 -7 73 -5 52 3 61 2 32 -4 -22 -4 -73 -6 -112 -4 -40 3 -73 0
-73 -5 0 -5 -17 -10 -37 -11 -21 -1 -47 -3 -58 -5 -11 -3 -26 -5 -34 -5 -8 -1
-12 -4 -9 -7 3 -3 48 -1 99 5 52 6 148 13 214 17 66 3 165 10 220 14 l100 7
-135 2 c-196 3 -134 18 127 30 254 13 600 13 563 1 -14 -5 9 -6 55 -3 44 3 77
3 74 -1 -6 -7 -79 -21 -159 -31 -30 -4 -57 -9 -59 -11 -2 -2 40 -4 95 -5 54
-1 137 -4 184 -8 74 -6 82 -8 60 -18 -14 -6 -61 -19 -105 -28 -90 -19 -155
-39 -95 -30 97 16 130 17 130 6 0 -6 -5 -11 -12 -11 -6 0 -8 -3 -5 -7 4 -3 15
1 24 9 10 9 34 18 53 21 19 3 46 7 60 11 151 35 342 68 556 96 85 11 157 20
159 20 5 0 -14 -82 -26 -112 -14 -34 -40 -43 -194 -63 -371 -49 -545 -89 -684
-160 -71 -35 -81 -37 -205 -44 -113 -6 -126 -8 -96 -17 19 -6 100 -10 180 -8
126 2 135 1 70 -6 -76 -9 -642 -50 -691 -50 -15 0 -35 -7 -43 -16 -9 -8 -16
-11 -16 -5 0 23 -30 9 -72 -34 l-44 -45 -261 -7 -262 -6 -12 -31 c-15 -39 -49
-77 -61 -70 -5 3 -13 17 -18 30 -12 29 -46 32 -53 4 -4 -17 0 -20 24 -20 19 0
29 -5 29 -15 0 -12 -6 -14 -27 -8 -16 3 -37 6 -48 5 -29 -2 -43 15 -50 62 l-7
43 -162 7 c-89 4 -171 9 -182 11 -10 2 -27 4 -37 4 -10 1 -30 21 -45 46 -18
30 -37 49 -59 56 -39 13 -60 36 -46 50 8 8 17 7 32 0 12 -7 21 -8 21 -2 0 5
-7 12 -16 15 -12 5 -3 18 38 57 l53 51 -70 -55 c-75 -57 -91 -90 -60 -121 9
-9 12 -16 6 -16 -6 0 -11 -7 -11 -15 0 -8 -7 -15 -15 -15 -8 0 -15 -5 -15 -11
0 -5 5 -7 10 -4 7 4 9 -6 7 -30 -4 -32 0 -40 41 -75 29 -26 39 -40 28 -40 -23
0 -105 80 -88 87 17 7 5 23 -13 16 -35 -13 -10 -70 60 -136 20 -19 26 -30 18
-34 -19 -7 -16 -25 16 -122 46 -137 107 -253 161 -306 48 -47 49 -48 137 -55
172 -16 645 -23 690 -11 38 10 153 92 153 109 0 4 -87 7 -192 6 l-193 -1 165
7 c91 4 181 8 200 9 32 1 38 7 70 64 l36 62 -291 -3 c-280 -4 -816 11 -863 24
-12 4 -22 11 -22 16 0 6 10 8 23 4 77 -22 932 -40 1090 -23 l77 9 35 60 c20
33 35 62 33 63 -2 1 -43 -2 -93 -7 -52 -6 -301 -8 -585 -5 -479 5 -600 13
-625 39 -7 7 1 9 25 4 145 -29 903 -46 1139 -25 128 11 154 16 162 31 5 10 33
24 62 33 104 30 768 158 794 153 9 -2 -52 -16 -135 -32 -83 -16 -149 -33 -146
-38 3 -5 10 -5 16 -2 7 4 8 2 4 -4 -4 -6 6 -18 22 -26 16 -8 32 -22 36 -31 3
-8 9 -14 13 -13 15 5 72 -64 84 -101 7 -20 16 -39 22 -42 11 -8 -24 -12 -343
-39 -297 -26 -321 -31 -370 -82 -29 -31 -48 -42 -77 -44 -39 -4 -74 -10 -105
-16 -10 -2 -31 -22 -47 -45 -16 -22 -51 -56 -76 -74 l-48 -34 39 -3 c21 -2 83
2 138 8 56 6 128 13 161 16 l60 4 -70 -19 c-126 -34 -316 -72 -384 -78 -36 -3
-228 0 -426 6 l-360 11 -62 31 c-34 17 -70 41 -80 52 -18 20 -18 20 16 2 29
-14 111 -28 111 -18 0 1 -20 21 -44 43 -65 60 -180 290 -185 369 0 11 -19 41
-41 66 -22 25 -40 51 -40 57 0 6 -3 9 -6 6 -8 -8 14 -47 42 -75 13 -13 25 -32
25 -41 1 -9 4 -28 6 -42 2 -14 4 -36 5 -49 0 -16 2 -20 8 -11 5 9 8 4 7 -13
-2 -24 -3 -24 -19 -10 -21 18 -23 11 -7 -19 11 -21 11 -21 -19 0 -16 12 -35
22 -42 22 -6 0 -23 6 -38 14 -15 7 -38 17 -51 21 -22 7 -23 6 -16 -36 9 -62
73 -260 90 -283 9 -11 48 -28 100 -42 86 -23 112 -15 30 9 -31 9 -42 16 -36
25 6 10 25 4 79 -25 39 -21 72 -41 72 -44 0 -4 -19 -12 -43 -18 -40 -11 -120
-1 -261 35 -33 8 -35 -12 -5 -50 28 -36 50 -43 150 -51 46 -4 87 -9 91 -13 3
-4 8 -20 10 -37 2 -21 9 -31 24 -33 12 -2 27 -17 37 -37 24 -50 81 -109 132
-136 50 -27 57 -39 21 -39 -14 0 -28 -5 -31 -10 -3 -6 3 -10 14 -10 11 0 22
-4 25 -9 30 -48 1208 -83 2116 -62 475 11 558 17 612 47 14 8 62 17 105 20 43
3 81 8 84 10 6 3 342 35 529 50 41 3 91 8 110 10 19 2 125 11 235 19 110 8
259 20 330 26 72 6 279 16 462 23 329 12 333 12 358 36 59 56 124 199 140 312
7 45 9 47 70 77 109 54 132 91 141 234 3 38 10 80 15 94 5 14 7 28 4 31 -2 3
0 11 6 18 6 8 -31 -9 -82 -36 -52 -27 -96 -50 -99 -50 -3 0 -6 8 -7 18 -1 13
17 28 60 51 34 17 54 29 44 26 -11 -3 -31 -7 -45 -10 -27 -5 -27 -5 -4 7 40
20 85 98 88 151 2 35 -1 47 -12 47 -10 0 -8 6 6 20 21 21 24 42 10 75 -8 18
-9 17 -9 -7 -1 -15 -6 -30 -11 -33 -6 -4 -8 -10 -5 -14 5 -10 -19 -33 -53 -51
-37 -19 -36 -5 1 17 31 19 33 24 34 74 1 30 -1 45 -4 34 -3 -11 -13 -26 -22
-33 -14 -12 -14 -13 4 -7 16 5 17 4 8 -6 -10 -10 -15 -9 -27 1 -26 21 -66 4
-73 -31 -4 -22 -8 -27 -14 -17 -5 7 -9 8 -9 3 0 -6 5 -16 12 -23 9 -9 8 -12
-4 -12 -9 0 -28 15 -42 33 -28 35 -34 27 -11 -13 23 -41 18 -39 -34 11 -80 77
-154 76 -237 -3 -28 -26 -32 -27 -38 -12 -4 10 -1 21 6 25 7 4 10 11 6 14 -3
3 -15 -7 -27 -23 -11 -16 -18 -32 -14 -36 3 -3 1 -6 -5 -6 -5 0 -18 -20 -28
-45 -19 -52 -28 -55 -14 -6 16 57 1 67 -104 70 -50 1 -93 5 -96 9 -3 4 -37 16
-77 26 -57 14 -100 17 -210 15 -76 -2 -141 -8 -145 -14 -4 -5 -8 13 -9 40 l-1
50 -12 -48 c-6 -27 -15 -45 -18 -41 -4 4 -47 2 -95 -4 -49 -7 -131 -14 -183
-17 -52 -3 -135 -10 -185 -15 -189 -20 -342 -31 -393 -28 -28 2 -52 -1 -52 -5
0 -5 -4 -6 -9 -2 -5 3 -11 -7 -13 -22 -3 -19 -7 -7 -12 35 -5 34 -13 62 -17
62 -5 0 -10 -28 -10 -62 -1 -50 -3 -57 -9 -33 l-8 30 -1 -27 c0 -16 -6 -28
-12 -28 -6 0 -8 9 -4 20 4 11 2 20 -4 20 -6 0 -11 -6 -12 -12 0 -7 -4 -4 -9 7
-8 18 -9 17 -9 -7 -1 -15 -6 -30 -13 -34 -7 -4 -8 -3 -4 4 4 7 1 12 -9 12 -12
0 -14 -4 -5 -19 14 -28 12 -41 -3 -15 -7 12 -27 38 -45 59 -27 30 -36 35 -45
25 -9 -10 -9 -11 1 -6 7 4 13 2 14 -6 0 -7 2 -17 2 -23 1 -5 5 -17 10 -25 5
-8 -15 10 -45 41 -72 75 -108 93 -189 94 -72 0 -104 -15 -192 -87 -49 -40 -58
-44 -58 -27 0 5 4 8 9 4 6 -3 15 4 21 15 6 11 7 20 3 20 -4 0 11 19 32 42 32
33 34 37 10 19 -36 -27 -92 -94 -131 -155 -16 -25 -38 -47 -49 -50 -11 -3 -67
-32 -125 -66 -108 -62 -147 -76 -118 -42 10 11 17 45 20 97 7 114 6 116 -50
111 -26 -2 -38 -2 -27 1 96 21 144 38 164 56 37 35 102 140 99 162 -3 19 -11
20 -108 20 -58 0 -112 -3 -120 -6 -8 -3 -46 -9 -85 -12 l-70 -5 44 20 c126 58
427 130 676 162 200 27 201 27 224 134 5 24 12 46 15 49 3 3 27 8 53 10 l48 5
103 202 c173 341 224 391 452 445 43 10 42 10 -20 5 -105 -9 -368 -12 -330 -4
21 4 -22 7 -110 7 l-145 0 85 -11z m278 -69 c-7 -8 -25 -19 -38 -26 -22 -11
-21 -9 5 13 31 26 57 36 33 13z m-1681 -110 c-10 -7 -48 -33 -85 -60 -37 -26
-75 -50 -84 -53 -10 -3 -18 -9 -18 -14 0 -4 -9 -10 -20 -13 -11 -3 -19 -11
-18 -19 2 -8 -4 -12 -16 -10 -10 2 -15 -1 -11 -7 3 -7 0 -8 -10 -5 -11 5 -14
2 -9 -12 4 -12 3 -15 -3 -7 -11 15 -45 -9 -40 -28 2 -8 2 -11 0 -6 -3 4 -8 7
-13 7 -14 0 -105 -80 -105 -93 -1 -6 -7 -11 -13 -9 -7 1 -29 -13 -49 -32 -33
-31 -35 -36 -22 -53 12 -16 12 -17 -1 -7 -12 8 -23 6 -49 -13 -23 -15 -28 -23
-17 -23 28 0 12 -25 -17 -28 -19 -2 -27 1 -27 11 0 44 397 355 585 459 51 28
75 37 42 15z m337 -43 c4 -10 -6 -36 -23 -63 -16 -25 -45 -75 -64 -111 -79
-146 -80 -148 -72 -115 4 17 12 37 19 45 40 50 52 141 18 139 -11 0 -12 -3 -4
-6 13 -5 17 -59 4 -67 -5 -3 -7 9 -5 27 l4 32 -15 -33 c-9 -18 -15 -36 -15
-40 4 -23 -5 -35 -33 -47 -127 -53 -130 -55 -118 -69 9 -12 6 -15 -17 -18 -16
-2 -27 -8 -25 -15 1 -7 -5 -13 -13 -13 -8 0 -15 -2 -15 -4 0 -2 -3 -12 -7 -21
-5 -15 -1 -16 35 -10 28 4 42 3 42 -4 0 -7 -28 -11 -77 -11 -43 0 -145 -5
-227 -10 -82 -6 -152 -8 -155 -4 -15 15 227 202 374 290 97 57 167 90 260 120
85 27 121 30 129 8z m546 -24 c0 -5 -2 -10 -4 -10 -3 0 -8 5 -11 10 -3 6 -1
10 4 10 6 0 11 -4 11 -10z m610 -22 c0 -6 -6 -5 -15 2 -8 7 -15 14 -15 16 0 2
7 1 15 -2 8 -4 15 -11 15 -16z m-793 -74 c-3 -3 -12 -4 -19 -1 -8 3 -5 6 6 6
11 1 17 -2 13 -5z m-1087 -139 c-7 -9 -15 -13 -17 -11 -7 7 7 26 19 26 6 0 6
-6 -2 -15z m547 -7 c-3 -8 -6 -5 -6 6 -1 11 2 17 5 13 3 -3 4 -12 1 -19z
m-777 -43 c-21 -26 -100 -75 -100 -63 0 17 31 48 49 48 9 0 25 7 35 15 25 19
32 19 16 0z m780 6 c0 -5 -9 -11 -20 -14 -12 -3 -20 0 -20 7 0 6 9 12 20 13
11 1 20 -2 20 -6z m-630 -17 c0 -7 -27 -34 -34 -34 -4 0 -1 9 6 20 12 19 28
27 28 14z m626 -48 c-15 -37 -29 -45 -42 -24 -5 7 -2 9 8 6 10 -4 18 4 27 29
7 19 15 32 18 30 2 -3 -3 -21 -11 -41z m-786 10 c0 -2 -8 -10 -17 -17 -16 -13
-17 -12 -4 4 13 16 21 21 21 13z m97 -62 c-3 -3 -12 -4 -19 -1 -8 3 -5 6 6 6
11 1 17 -2 13 -5z m1114 -34 c5 0 9 -4 9 -9 0 -4 -11 -6 -25 -3 -14 2 -25 9
-25 14 0 6 7 7 16 4 9 -3 20 -6 25 -6z m122 -7 c-7 -2 -19 -2 -25 0 -7 3 -2 5
12 5 14 0 19 -2 13 -5z m54 1 c-3 -3 -12 -4 -19 -1 -8 3 -5 6 6 6 11 1 17 -2
13 -5z m-317 -20 c0 -2 -26 -3 -57 -3 -44 1 -51 3 -28 8 29 6 85 3 85 -5z
m190 -34 c-8 -5 -28 -9 -45 -9 -29 1 -29 1 -5 9 14 4 34 8 45 9 16 1 17 -1 5
-9z m-1 -284 c-2 -2 -22 -6 -44 -9 -28 -5 -34 -4 -20 3 19 8 73 14 64 6z m31
-35 c-5 -11 -15 -23 -22 -27 -6 -4 -9 -3 -6 2 3 5 8 17 11 27 4 9 11 17 17 17
8 0 8 -6 0 -19z m-50 -30 c0 -13 -59 -71 -72 -71 -6 0 1 11 16 25 14 13 26 28
26 34 0 8 9 14 28 20 1 1 2 -3 2 -8z m15 -33 c-3 -12 -10 -25 -17 -30 -26 -16
-28 -7 -6 22 26 36 28 37 23 8z m-200 -28 c-19 -36 -36 -35 -46 3 -6 24 -4 26
25 29 17 2 32 2 34 2 2 -1 -4 -16 -13 -34z m-148 3 c5 -14 -37 -54 -49 -47 -5
3 -16 0 -25 -8 -14 -11 -15 -10 -9 12 6 22 5 23 -6 9 -25 -31 -78 -50 -78 -28
0 5 4 7 10 4 6 -4 7 1 3 11 -5 14 -11 11 -35 -17 -18 -21 -26 -27 -21 -14 6
18 5 19 -11 6 -10 -8 -25 -16 -34 -17 -10 -1 -25 -5 -34 -9 -13 -5 -19 0 -24
20 -6 24 -8 25 -17 10 -6 -12 -6 -20 3 -25 8 -5 7 -9 -5 -13 -9 -4 -13 -3 -10
3 8 13 1 13 -39 -4 -38 -16 -134 -38 -181 -41 -16 -1 -43 -6 -59 -10 l-30 -8
22 28 c12 15 22 41 22 57 0 29 -1 29 -45 24 -25 -2 -45 0 -45 5 0 5 9 9 20 9
11 0 20 5 20 11 0 7 12 9 34 5 19 -4 37 -3 40 2 3 5 45 10 93 11 86 2 125 5
210 16 36 5 42 4 37 -9 -3 -9 -1 -16 6 -16 7 0 9 -8 5 -20 -10 -30 2 -24 20
11 12 23 21 29 36 24 11 -4 19 -2 19 4 0 6 7 11 16 11 11 0 14 -6 10 -17 -5
-16 -5 -16 6 -3 16 20 78 25 78 8 0 -7 5 -5 11 5 11 19 30 19 36 0z m44 5 c0
-10 2 -10 6 0 8 20 30 14 37 -10 8 -32 7 -38 -5 -38 -6 0 -9 7 -5 15 5 13 3
13 -17 0 -26 -16 -41 -9 -49 23 -5 17 -2 22 13 22 10 0 19 -6 20 -12z m-259
-20 c-7 -7 -12 -8 -12 -2 0 6 3 14 7 17 3 4 9 5 12 2 2 -3 -1 -11 -7 -17z
m-1810 -34 c6 -13 17 -24 24 -24 15 0 29 -43 19 -59 -7 -12 -42 7 -82 43 -21
18 -30 55 -17 68 11 12 46 -6 56 -28z m5071 -11 c-7 -2 -21 -2 -30 0 -10 3 -4
5 12 5 17 0 24 -2 18 -5z m273 -8 c-11 -8 -27 -15 -35 -15 -13 1 -12 4 3 15
11 8 27 15 35 15 13 -1 12 -4 -3 -15z m-4037 -12 c-8 -10 -18 -21 -23 -24 -13
-10 1 -26 46 -60 23 -16 36 -29 31 -29 -6 0 -30 18 -54 39 l-44 39 24 26 c28
29 41 35 20 9z m3976 -3 c3 -5 1 -10 -4 -10 -6 0 -11 5 -11 10 0 6 2 10 4 10
3 0 8 -4 11 -10z m-148 -24 c9 -8 2 -11 -32 -13 -24 -1 -56 -9 -70 -19 -25
-16 -32 -11 -17 13 23 37 89 48 119 19z m-3154 7 c-7 -2 -19 -2 -25 0 -7 3 -2
5 12 5 14 0 19 -2 13 -5z m-50 -10 c-7 -2 -19 -2 -25 0 -7 3 -2 5 12 5 14 0
19 -2 13 -5z m-50 -10 c-7 -2 -19 -2 -25 0 -7 3 -2 5 12 5 14 0 19 -2 13 -5z
m691 -18 c-9 -14 -18 -25 -20 -25 -2 0 2 11 8 25 6 14 15 25 20 25 5 0 1 -11
-8 -25z m196 15 c0 -5 -4 -10 -10 -10 -5 0 -10 5 -10 10 0 6 5 10 10 10 6 0
10 -4 10 -10z m-943 -6 c-3 -3 -12 -4 -19 -1 -8 3 -5 6 6 6 11 1 17 -2 13 -5z
m913 -3 c0 -5 -8 -11 -17 -15 -10 -3 -25 -9 -33 -12 -8 -3 -4 4 10 15 27 22
40 26 40 12z m167 -19 c-1 -4 2 -8 6 -9 5 -1 18 -15 30 -30 12 -15 25 -29 29
-31 5 -2 8 -8 8 -14 0 -5 -19 6 -42 26 -55 47 -93 54 -171 28 -69 -23 -84 -20
-47 8 39 30 101 41 150 25 23 -7 24 -7 10 10 -14 17 -14 17 7 6 13 -6 22 -15
20 -19z m-1130 12 c-3 -3 -12 -4 -19 -1 -8 3 -5 6 6 6 11 1 17 -2 13 -5z m-50
-10 c-3 -3 -12 -4 -19 -1 -8 3 -5 6 6 6 11 1 17 -2 13 -5z m-100 -20 c-3 -3
-12 -4 -19 -1 -8 3 -5 6 6 6 11 1 17 -2 13 -5z m-102 -20 c-33 -8 -71 -17 -85
-20 -14 -3 -22 -2 -18 2 12 11 99 33 133 32 20 0 9 -5 -30 -14z m3711 -80 c10
-70 -1 -61 -24 18 -20 69 -20 72 -2 50 10 -13 22 -43 26 -68z m-104 56 c25
-19 25 -20 11 -77 -37 -158 -48 -174 -26 -38 14 89 14 90 -8 107 -25 21 -39
22 -63 5 -17 -12 -17 -17 -1 -77 9 -36 20 -77 26 -91 8 -20 6 -35 -5 -60 l-15
-34 5 37 c6 35 -3 75 -33 146 -12 28 -17 32 -28 22 -31 -26 -15 12 19 46 40
40 80 45 118 14z m-2272 -58 c28 -14 34 -22 32 -42 -5 -49 -44 -179 -59 -197
-8 -10 -12 -12 -8 -5 7 13 35 176 35 202 0 9 -14 24 -30 34 -26 15 -36 16 -65
6 -19 -6 -35 -17 -35 -23 0 -7 12 -50 26 -97 36 -120 38 -132 21 -171 l-15
-34 5 50 c4 41 -1 64 -27 125 -38 90 -44 97 -65 80 -8 -7 -15 -8 -15 -3 0 12
70 79 90 86 30 11 76 7 110 -11z m2334 -27 c13 -31 12 -37 -15 -94 -16 -33
-29 -67 -29 -75 0 -7 -16 -26 -35 -40 -40 -31 -47 -21 -10 14 14 13 30 42 36
64 6 23 18 58 27 79 12 31 13 45 5 68 -15 40 4 26 21 -16z m-214 -17 c0 -7 14
-42 30 -77 17 -35 29 -66 26 -68 -2 -2 -19 20 -37 51 -18 30 -36 53 -40 51 -3
-3 -9 -19 -13 -36 -3 -18 -9 -30 -12 -26 -9 8 25 117 36 117 6 0 10 -6 10 -12z
m-2005 -111 c14 -38 25 -74 24 -80 0 -7 -9 11 -18 38 l-18 50 -36 -72 c-21
-40 -37 -79 -37 -86 0 -8 -20 -28 -45 -46 -25 -18 -45 -29 -45 -26 0 4 17 26
38 50 40 46 99 197 90 231 -3 10 -9 28 -13 39 -6 16 -3 15 14 -5 11 -14 32
-56 46 -93z m-237 -142 c-2 -2 -25 25 -51 62 -27 36 -51 62 -55 58 -4 -3 -15
-27 -25 -53 -17 -46 -17 -46 -13 -11 2 20 14 60 27 88 l22 52 49 -96 c27 -53
48 -98 46 -100z m2498 -23 c-7 -7 -56 15 -86 38 l-25 20 50 -3 50 -2 5 40 c4
34 5 30 8 -24 2 -35 1 -66 -2 -69z m-505 61 c-44 -18 -33 -29 14 -13 41 13 48
11 39 -14 -4 -11 -14 -16 -25 -13 -11 3 -19 2 -19 -2 0 -11 -69 -33 -80 -26
-5 3 -10 2 -10 -3 0 -5 -14 -9 -32 -9 -18 0 -33 -4 -35 -10 -2 -6 -13 -9 -23
-6 -12 3 -20 0 -20 -7 0 -7 -8 -9 -20 -5 -12 4 -20 2 -20 -5 0 -7 -8 -9 -20
-5 -11 3 -25 3 -30 0 -6 -4 -36 -8 -68 -10 -52 -4 -167 -14 -517 -45 -395 -36
-516 -43 -488 -31 12 6 168 23 345 38 178 15 312 29 298 31 -14 2 -133 -6
-264 -18 -270 -23 -294 -24 -281 -11 28 25 421 103 685 136 307 38 345 42 490
42 108 0 113 -1 81 -14z m294 -5 c-8 -13 -32 -34 -53 -48 -29 -20 -38 -33 -40
-60 -2 -29 0 -32 8 -17 6 9 16 15 21 11 6 -3 15 8 22 25 6 17 15 31 19 31 12
0 9 -25 -4 -38 -9 -9 -9 -12 0 -12 6 0 16 10 23 22 11 20 12 20 30 -18 16 -33
18 -53 12 -136 -5 -85 -4 -98 11 -104 30 -11 16 -23 -16 -13 -18 5 -43 20 -56
35 -33 37 -38 23 -6 -15 l26 -32 -25 12 c-28 13 -46 48 -48 94 -1 17 -10 59
-21 95 -10 36 -16 83 -14 105 2 22 5 45 5 50 1 6 20 10 43 11 23 0 43 5 46 12
2 7 10 12 18 12 13 0 13 -3 -1 -22z m33 -8 c-1 -18 -8 -30 -16 -30 -7 0 -11 6
-8 13 3 6 9 20 12 30 9 26 15 21 12 -13z m-5218 -19 c15 -29 12 -38 -5 -15
-11 15 -14 16 -15 4 0 -9 5 -21 12 -28 17 -17 2 -28 -17 -12 -8 7 -15 22 -15
35 0 38 23 47 40 16z m3167 -158 c-7 -7 -127 49 -127 60 0 6 22 8 60 4 l60 -7
2 63 c2 49 3 43 5 -27 2 -49 2 -90 0 -93z m-2772 122 l150 -14 -158 3 c-99 2
-163 8 -170 15 -14 14 -15 14 178 -4z m1708 -5 c6 -22 -8 -28 -16 -7 -3 7 -6
5 -6 -5 -1 -11 -6 -15 -16 -12 -11 5 -12 11 -4 25 13 25 35 24 42 -1z m-70 -9
c-2 -10 3 -26 12 -35 20 -19 16 -29 -8 -20 -20 7 -29 31 -22 55 8 25 25 25 18
0z m3242 -2 c26 -12 49 -17 57 -13 7 5 22 9 33 11 18 2 18 1 -2 -9 -27 -13
-28 -21 -9 -37 11 -10 17 -8 25 6 9 14 10 9 5 -22 -10 -59 -13 -60 -47 -16
-17 23 -36 41 -42 41 -12 1 -84 59 -72 60 4 0 27 -9 52 -21z m-2531 -244 c19
-59 18 -55 8 -55 -18 0 -34 81 -37 195 l-3 120 8 -105 c4 -58 15 -127 24 -155z
m-2659 235 c3 -5 2 -10 -4 -10 -5 0 -13 5 -16 10 -3 6 -2 10 4 10 5 0 13 -4
16 -10z m2825 -10 c0 -5 -7 -10 -15 -10 -8 0 -15 -6 -15 -14 0 -8 -26 -29 -59
-46 -45 -24 -61 -39 -69 -63 -9 -28 -10 -24 -11 41 -1 45 3 72 10 72 5 0 7 -4
4 -10 -8 -12 -7 -12 55 1 27 6 50 14 50 19 0 5 10 11 23 13 12 2 23 5 25 6 1
0 2 -3 2 -9z m26 -31 c-1 -16 -6 -32 -11 -37 -5 -4 -5 -1 -1 6 4 6 3 12 -3 12
-5 0 -12 -6 -14 -12 -3 -7 -6 -1 -6 14 -1 21 3 26 15 21 13 -5 15 -2 9 17 -5
15 -4 20 4 16 6 -4 9 -20 7 -37z m2337 -90 c4 -45 9 -84 12 -87 8 -8 46 30 66
68 10 19 18 30 19 25 1 -32 -89 -150 -103 -135 -7 8 -13 219 -6 215 3 -3 9
-41 12 -86z m-2933 71 c0 -5 -8 -14 -17 -19 -17 -10 -16 -10 2 -11 19 -1 18
-2 -5 -22 -14 -11 -49 -32 -78 -45 -61 -28 -165 -36 -667 -49 -254 -6 -284 -5
-314 10 -18 10 -31 19 -29 22 3 2 116 18 253 35 236 30 250 30 283 15 34 -17
85 -17 287 -1 130 10 243 38 259 64 9 13 26 15 26 1z m2597 -32 c-3 -8 -6 -5
-6 6 -1 11 2 17 5 13 3 -3 4 -12 1 -19z m-2067 -19 c0 -4 -12 -18 -26 -33 -15
-14 -22 -26 -17 -26 18 0 64 53 59 67 -3 7 -2 13 3 13 5 0 19 -25 31 -55 20
-50 22 -65 15 -163 -7 -105 -6 -109 14 -115 27 -7 27 -27 1 -27 -65 0 -135 64
-169 155 -22 58 -27 100 -12 91 5 -3 20 3 32 14 13 11 20 19 16 20 -5 0 1 13
12 29 12 16 21 37 21 48 0 15 2 16 10 3 5 -8 10 -18 10 -21z m151 -13 c31 -12
70 -33 88 -45 l31 -23 16 34 15 33 -6 -30 c-3 -16 -11 -48 -17 -70 l-10 -40
-43 48 c-24 26 -49 47 -55 47 -11 0 -100 59 -100 67 0 8 30 1 81 -21z m2314
14 c19 -8 19 -9 -2 -9 -13 -1 -26 -1 -30 -2 -4 0 -9 4 -11 10 -4 13 15 13 43
1z m-1855 -19 c-16 -9 -186 -24 -178 -15 4 4 117 18 178 22 13 1 13 0 0 -7z
m1230 -27 c33 -6 38 -13 80 -98 57 -116 56 -113 38 -99 -11 10 -192 14 -786
19 -425 3 -772 8 -772 10 0 2 14 17 32 33 26 22 53 33 120 45 87 16 464 47
803 66 314 17 359 21 364 25 6 7 79 6 121 -1z m-1915 -24 c-3 -5 -11 -10 -16
-10 -6 0 -7 5 -4 10 3 6 11 10 16 10 6 0 7 -4 4 -10z m199 -17 c2 -10 7 -57
11 -105 5 -63 11 -88 20 -88 22 0 71 47 85 80 7 17 15 29 17 26 4 -4 -20 -52
-46 -96 -5 -8 -12 -23 -15 -32 -6 -20 -63 -58 -86 -58 -8 0 3 11 25 25 22 13
35 25 28 25 -6 0 -15 -4 -18 -10 -17 -28 -25 -1 -25 88 0 53 -4 112 -9 130 -5
17 -6 32 -1 32 5 0 11 -8 14 -17z m2330 -67 c-9 -24 -71 -49 -92 -37 -15 9
-14 10 8 11 14 0 39 9 55 19 17 11 31 20 32 20 1 1 0 -5 -3 -13z m-3679 -58
c313 -14 352 -18 366 -34 8 -10 34 -14 89 -14 69 0 78 2 83 20 7 28 35 25 43
-5 6 -24 10 -25 75 -25 47 0 69 4 69 12 0 19 18 -4 25 -32 6 -25 5 -26 -62
-28 -37 -1 -99 -4 -138 -7 -111 -8 -766 -43 -1035 -55 -135 -6 -266 -12 -292
-14 -27 -2 -48 -1 -48 1 0 3 21 24 48 48 26 23 61 66 77 93 l30 51 75 4 c85 5
286 0 595 -15z m1258 -132 c15 -4 27 -11 27 -17 0 -14 -37 -2 -72 23 -34 23
-37 34 -5 14 12 -7 34 -16 50 -20z m177 -110 c0 -3 -4 -8 -10 -11 -5 -3 -10
-1 -10 4 0 6 5 11 10 11 6 0 10 -2 10 -4z"/>
<path d="M1799 2163 c-13 -16 -12 -17 4 -4 9 7 17 15 17 17 0 8 -8 3 -21 -13z"/>
<path d="M1748 2103 c7 -3 16 -2 19 1 4 3 -2 6 -13 5 -11 0 -14 -3 -6 -6z"/>
<path d="M2622 2447 c-24 -25 -28 -37 -12 -37 6 0 10 5 10 11 0 7 8 18 17 25
10 7 15 15 12 18 -3 3 -15 -4 -27 -17z"/>
<path d="M2300 1590 c0 -5 5 -10 10 -10 6 0 10 5 10 10 0 6 -4 10 -10 10 -5 0
-10 -4 -10 -10z"/>
<path d="M2336 1584 c-5 -14 -4 -15 9 -4 17 14 19 20 6 20 -5 0 -12 -7 -15
-16z"/>
<path d="M2205 1509 c-3 -4 2 -6 10 -5 21 3 28 13 10 13 -9 0 -18 -4 -20 -8z"/>
<path d="M590 1550 c0 -5 5 -10 10 -10 6 0 10 5 10 10 0 6 -4 10 -10 10 -5 0
-10 -4 -10 -10z"/>
<path d="M5198 1023 c7 -3 16 -2 19 1 4 3 -2 6 -13 5 -11 0 -14 -3 -6 -6z"/>
<path d="M5128 1003 c7 -3 16 -2 19 1 4 3 -2 6 -13 5 -11 0 -14 -3 -6 -6z"/>
<path d="M5073 993 c9 -2 23 -2 30 0 6 3 -1 5 -18 5 -16 0 -22 -2 -12 -5z"/>
<path d="M4875 974 l-110 -13 100 6 c107 5 222 21 155 20 -19 0 -84 -6 -145
-13z"/>
<path d="M4683 953 c15 -2 39 -2 55 0 15 2 2 4 -28 4 -30 0 -43 -2 -27 -4z"/>
<path d="M5607 934 c-41 -52 -41 -54 -27 -103 9 -33 45 -81 61 -81 8 0 24 153
20 185 -7 47 -17 47 -54 -1z"/>
<path d="M2148 843 c12 -2 32 -2 45 0 12 2 2 4 -23 4 -25 0 -35 -2 -22 -4z"/>
<path d="M3310 813 c-19 -25 -43 -55 -54 -68 -16 -20 -17 -27 -6 -60 12 -36
74 -115 90 -115 24 0 35 270 12 284 -4 2 -23 -16 -42 -41z"/>
<path d="M2928 2753 c12 -2 30 -2 40 0 9 3 -1 5 -23 4 -22 0 -30 -2 -17 -4z"/>
<path d="M2848 2743 c6 -2 18 -2 25 0 6 3 1 5 -13 5 -14 0 -19 -2 -12 -5z"/>
<path d="M3458 2713 c6 -2 18 -2 25 0 6 3 1 5 -13 5 -14 0 -19 -2 -12 -5z"/>
<path d="M4298 2670 c-56 -10 -144 -49 -174 -78 -67 -64 -177 -241 -240 -383
-33 -75 -45 -94 -53 -80 -4 6 -20 6 -41 1 l-35 -8 34 -1 c25 -1 32 -5 27 -16
-4 -12 -2 -13 13 -6 10 6 21 7 25 4 8 -9 -14 -33 -30 -33 -8 0 -14 -7 -14 -15
0 -11 7 -14 25 -9 20 5 34 -2 70 -35 40 -37 50 -41 94 -41 54 0 62 16 18 39
-19 10 -18 10 13 6 l35 -6 -24 21 c-13 11 -19 20 -15 21 5 0 73 0 150 -1 152
-1 188 6 236 51 14 13 28 34 32 46 9 28 33 49 33 28 0 -8 -4 -15 -8 -15 -3 0
-9 -9 -12 -20 -4 -17 0 -20 26 -19 18 1 25 3 16 6 -14 3 -15 11 -7 51 5 26 6
57 3 70 -3 13 -3 39 1 58 l7 36 28 -44 29 -43 0 33 c0 41 20 39 33 -4 20 -70
35 -139 31 -146 -3 -5 2 -8 11 -8 14 0 16 9 12 61 -5 51 -3 58 9 48 11 -9 14
-8 15 7 1 25 25 -28 35 -76 7 -33 25 -60 40 -60 4 0 0 8 -8 18 -9 9 -18 42
-22 73 -5 56 -5 56 20 51 23 -4 24 -2 19 21 -6 21 -3 25 17 25 13 0 37 3 53 6
22 5 24 4 10 -2 -14 -6 3 -9 53 -10 39 -1 72 2 72 7 0 12 94 9 102 -3 5 -8 8
-8 8 0 0 6 -10 24 -21 39 l-22 27 -151 -4 -152 -3 -30 80 c-17 44 -34 88 -39
98 -6 15 0 17 54 17 64 0 130 -18 263 -72 63 -26 82 -39 113 -79 20 -27 41
-49 46 -49 5 0 14 -12 19 -26 6 -14 14 -23 19 -20 5 3 8 -2 7 -10 0 -9 8 -18
19 -20 11 -1 26 -11 33 -21 13 -16 13 -16 7 7 -16 54 -35 91 -45 85 -6 -3 -7
0 -4 10 4 10 2 15 -7 13 -8 -2 -14 5 -14 17 -1 11 -5 19 -11 18 -5 -1 -10 8
-10 19 0 19 1 19 19 -3 36 -44 67 -106 96 -190 16 -46 34 -85 40 -87 13 -4 14
-8 -4 58 -8 30 -12 56 -10 58 2 3 16 -3 31 -12 36 -24 40 -14 14 31 l-22 38
33 -35 c31 -32 38 -35 99 -38 36 -1 70 -3 76 -4 15 -2 38 -38 24 -38 -5 0 -10
5 -10 10 0 6 -5 10 -12 10 -6 0 -4 -7 5 -18 16 -17 16 -20 -6 -39 -12 -12 -31
-23 -42 -26 -16 -4 -15 -5 5 -6 29 -1 50 13 74 52 l18 27 -38 43 c-112 124
-402 285 -645 357 -206 61 -442 85 -591 60z m232 -122 c17 -42 30 -83 29 -90
0 -7 -9 10 -19 37 -9 28 -29 77 -44 110 -14 33 -19 51 -11 41 8 -11 29 -55 45
-98z m-111 -78 c13 -30 29 -68 36 -85 32 -72 32 -75 -24 -75 -35 0 -51 4 -51
13 0 7 -12 32 -27 55 -34 52 -61 61 -195 63 -54 1 -95 5 -93 9 3 5 15 6 27 2
14 -3 19 -2 14 6 -4 7 -16 12 -26 12 -27 0 -31 12 -12 38 16 20 29 22 162 30
98 5 148 4 156 -3 5 -5 20 -35 33 -65z m712 -7 c13 -16 12 -17 -3 -4 -17 13
-22 21 -14 21 2 0 10 -8 17 -17z m-1091 -12 c-5 -11 -15 -23 -21 -27 -6 -3 -3
5 6 20 20 30 30 35 15 7z m1240 -36 c7 -8 18 -15 25 -15 6 0 20 -9 30 -20 10
-11 21 -17 25 -15 11 7 31 -20 22 -30 -4 -5 0 -6 9 -3 9 4 21 -2 29 -12 7 -10
18 -16 25 -14 17 7 50 -32 35 -41 -7 -4 -16 -3 -22 3 -6 6 -25 8 -43 5 -25 -4
-39 0 -56 16 -23 21 -21 40 3 25 18 -11 48 -12 42 -2 -4 5 -12 7 -20 4 -8 -3
-14 -2 -14 2 0 4 -9 13 -20 19 -16 11 -18 10 -14 -2 4 -8 1 -15 -4 -15 -6 0
-13 9 -17 20 -3 11 -18 29 -32 40 -14 11 -22 20 -18 20 4 0 2 7 -5 15 -7 8 -8
15 -2 15 5 0 15 -7 22 -15z m-783 -57 c-3 -8 -6 -5 -6 6 -1 11 2 17 5 13 3 -3
4 -12 1 -19z m-565 -110 c-8 -8 -9 -4 -5 13 4 13 8 18 11 10 2 -7 -1 -18 -6
-23z m472 4 c57 -26 65 -40 35 -63 -27 -21 -128 -25 -311 -12 -99 6 -117 15
-83 43 8 7 12 17 8 24 -4 7 -1 7 7 -1 10 -9 18 -9 34 0 71 41 227 45 310 9z
m-484 -32 c0 -5 -5 -10 -11 -10 -5 0 -7 5 -4 10 3 6 8 10 11 10 2 0 4 -4 4
-10z m140 -56 c0 -2 -13 -4 -30 -4 -16 0 -30 4 -30 8 0 5 14 7 30 4 17 -2 30
-6 30 -8z"/>
<path d="M4071 2496 c-9 -11 -6 -15 16 -19 16 -3 32 -1 38 4 5 5 -2 9 -20 9
-23 0 -27 3 -15 10 8 5 10 10 4 10 -6 0 -17 -6 -23 -14z"/>
<path d="M4145 2658 c-61 -33 -145 -139 -204 -255 -43 -86 -32 -79 17 10 58
104 115 177 173 220 50 35 57 49 14 25z"/>
<path d="M5083 2243 c9 -2 25 -2 35 0 9 3 1 5 -18 5 -19 0 -27 -2 -17 -5z"/>
<path d="M1485 2080 l-50 -8 63 2 c34 0 62 4 62 8 0 5 -6 7 -12 6 -7 0 -35 -4
-63 -8z"/>
<path d="M2407 2078 c-7 -5 -2 -8 13 -8 21 0 22 -2 10 -11 -12 -9 -12 -10 3
-5 10 3 37 9 60 12 76 12 75 24 -1 21 -41 -1 -79 -5 -85 -9z"/>
<path d="M2328 2073 c6 -2 18 -2 25 0 6 3 1 5 -13 5 -14 0 -19 -2 -12 -5z"/>
<path d="M1373 2063 c9 -2 23 -2 30 0 6 3 -1 5 -18 5 -16 0 -22 -2 -12 -5z"/>
<path d="M1288 2053 c7 -3 16 -2 19 1 4 3 -2 6 -13 5 -11 0 -14 -3 -6 -6z"/>
<path d="M2258 2023 c7 -3 16 -2 19 1 4 3 -2 6 -13 5 -11 0 -14 -3 -6 -6z"/>
<path d="M3811 2020 c0 -8 4 -24 9 -35 5 -13 9 -14 9 -5 0 8 -4 24 -9 35 -5
13 -9 14 -9 5z"/>
<path d="M2198 2013 c6 -2 18 -2 25 0 6 3 1 5 -13 5 -14 0 -19 -2 -12 -5z"/>
<path d="M4813 1975 c0 -27 2 -38 4 -22 2 15 2 37 0 50 -2 12 -4 0 -4 -28z"/>
<path d="M1321 1995 c-25 -8 -48 -12 -51 -10 -4 2 -22 0 -41 -5 -19 -4 -78
-18 -132 -30 -54 -12 -97 -24 -94 -26 2 -2 57 7 123 21 66 13 129 24 140 23
10 0 44 9 74 20 62 23 48 28 -19 7z"/>
<path d="M2158 2003 c7 -3 16 -2 19 1 4 3 -2 6 -13 5 -11 0 -14 -3 -6 -6z"/>
<path d="M5960 1995 c0 -9 11 -20 25 -25 14 -5 25 -12 25 -14 0 -3 -7 -3 -15
0 -8 4 -15 4 -15 0 0 -3 23 -46 52 -96 52 -91 52 -91 65 -65 9 15 13 48 11 82
l-3 57 -45 13 -45 12 38 -2 c20 -2 37 -2 37 0 0 6 -101 53 -115 53 -8 0 -15
-7 -15 -15z"/>
<path d="M4630 1965 c-19 -23 7 -28 87 -17 37 5 54 10 38 11 -17 0 -36 6 -43
13 -9 9 -12 8 -12 -6 0 -17 -2 -17 -25 -2 -30 20 -30 20 -45 1z"/>
<path d="M5370 1970 c0 -5 10 -10 23 -10 18 0 19 2 7 10 -19 13 -30 13 -30 0z"/>
<path d="M4060 1960 c0 -5 6 -10 14 -10 8 0 18 5 21 10 3 6 -3 10 -14 10 -12
0 -21 -4 -21 -10z"/>
<path d="M5320 1917 c0 -43 89 -59 154 -27 25 12 46 23 46 24 0 1 -38 0 -85
-2 -59 -3 -90 -1 -100 8 -12 10 -15 10 -15 -3z"/>
<path d="M4723 1913 c15 -2 39 -2 55 0 15 2 2 4 -28 4 -30 0 -43 -2 -27 -4z"/>
<path d="M4560 1899 c0 -14 36 -42 57 -45 10 -2 25 -4 33 -5 35 -5 67 3 103
24 l38 23 -97 -4 c-54 -3 -94 -1 -91 4 3 5 -6 10 -19 10 -13 1 -24 -2 -24 -7z"/>
<path d="M2831 1892 c-35 -5 -56 -29 -45 -52 8 -17 12 -17 59 -3 28 8 58 19
67 24 10 5 24 9 32 9 8 0 17 4 20 9 4 5 -2 7 -12 5 -9 -3 -35 -1 -57 3 -22 5
-51 7 -64 5z"/>
<path d="M2330 1850 c-8 -5 -10 -10 -5 -10 6 0 17 5 25 10 8 5 11 10 5 10 -5
0 -17 -5 -25 -10z"/>
<path d="M2250 1828 c-19 -6 -30 -12 -24 -14 5 -3 28 2 50 10 45 17 26 19 -26
4z"/>
<path d="M3765 1800 c3 -5 8 -10 11 -10 2 0 4 5 4 10 0 6 -5 10 -11 10 -5 0
-7 -4 -4 -10z"/>
<path d="M2328 1703 c7 -3 16 -2 19 1 4 3 -2 6 -13 5 -11 0 -14 -3 -6 -6z"/>
<path d="M5718 1703 c6 -2 18 -2 25 0 6 3 1 5 -13 5 -14 0 -19 -2 -12 -5z"/>
<path d="M725 1610 c80 -11 332 -17 341 -7 10 10 152 9 158 -1 3 -5 15 -8 28
-6 13 1 108 3 212 3 104 1 187 3 185 5 -2 2 -224 7 -494 10 -283 3 -465 1
-430 -4z"/>
<path d="M1105 1568 c10 -45 23 -68 40 -68 14 0 19 10 30 68 l7 32 -42 0 -42
0 7 -32z"/>
<path d="M1066 1582 c-10 -17 3 -130 16 -138 17 -11 18 1 5 77 -8 46 -16 69
-21 61z"/>
<path d="M1195 1519 c-7 -71 -2 -96 15 -69 12 19 13 140 1 140 -5 0 -12 -32
-16 -71z"/>
<path d="M440 1560 c0 -5 5 -10 10 -10 6 0 10 5 10 10 0 6 -4 10 -10 10 -5 0
-10 -4 -10 -10z"/>
</g>
</svg>
